# AST/ASF file generated using VICON BodyLanguage
# -----------------------------------------------
:version 1.10
:name VICON
:units
  mass 1.0
  length 0.45
  angle deg
:documentation
   .ast/.asf automatically generated from VICON data using
   VICON BodyBuilder and BodyLanguage model FoxedUp or BRILLIANT.MOD
:root
   order TX TY TZ RX RY RZ
   axis XYZ
   position 0 0 0  
   orientation 0 0 0 
:bonedata
  begin
     id 1 
     name lhipjoint
     direction 0.612567 -0.751349 0.245431 
     length 2.42285 
     axis 0 0 0  XYZ
  end
  begin
     id 2 
     name lfemur
     direction 0.34202 -0.939693 0  
     length 7.11304  
     axis 0 0 20  XYZ
    dof rx ry rz
    limits (-160.0 20.0)
           (-70.0 70.0)
           (-60.0 70.0)
  end
  begin
     id 3 
     name ltibia
     direction 0.34202 -0.939693 0   
     length 7.84529   
     axis 0 0 20   XYZ
    dof rx
    limits (-10.0 170.0)
  end
  begin
     id 4 
     name lfoot
     direction 0.0779239 -0.214094 0.9737   
     length 1.97176   
     axis -90 7.62852e-016 20   XYZ
    dof rx rz
    limits (-45.0 90.0)
           (-70.0 20.0)
  end
  begin
     id 5 
     name ltoes
     direction 1.53565e-011 -4.21709e-011 1   
     length 0.993197   
     axis -90 7.62852e-016 20   XYZ
    dof rx
    limits (-90.0 20.0)
  end
  begin
     id 6 
     name rhipjoint
     direction -0.665722 -0.709315 0.231701   
     length 2.56642  
     axis 0 0 0  XYZ 
  end
  begin
     id 7 
     name rfemur
     direction -0.34202 -0.939693 0   
     length 7.32108   
     axis 0 0 -20   XYZ
    dof rx ry rz
    limits (-160.0 20.0)
           (-70.0 70.0)
           (-70.0 60.0)
  end
  begin
     id 8 
     name rtibia
     direction -0.34202 -0.939693 0   
     length 7.81254   
     axis 0 0 -20   XYZ
    dof rx
    limits (-10.0 170.0)
 end
 begin
     id 9 
     name rfoot
     direction -0.0832806 -0.228812 0.969902   
     length 2.08278  
     axis -90 -7.62852e-016 -20   XYZ
    dof rx rz
    limits (-45.0 90.0)
           (-20.0 70.0)
  end
  begin
     id 10 
     name rtoes
     direction -1.53589e-011 -4.22086e-011 1   
     length 1.04609   
     axis -90 -7.62852e-016 -20   XYZ
    dof rx
    limits (-90.0 20.0)
  end
  begin
     id 11 
     name lowerback
     direction -0.00506013 0.988403 -0.151766   
     length 2.01978   
     axis 0 0 0   XYZ
    dof rx ry rz
    limits (-20.0 45.0)
           (-30.0 30.0)
           (-30.0 30.0)
  end
  begin
     id 12 
     name upperback
     direction -0.00836389 0.99968 0.0238859   
     length 2.01276   
     axis 0 0 0   XYZ
    dof rx ry rz
    limits (-20.0 45.0)
           (-30.0 30.0)
           (-30.0 30.0)
  end
  begin
     id 13 
     name thorax
     direction -0.00684136 0.995386 0.0957043   
     length 2.07303   
     axis 0 0 0   XYZ
    dof rx ry rz
    limits (-20.0 45.0)
           (-30.0 30.0)
           (-30.0 30.0)
  end
  begin
     id 14 
     name lowerneck
     direction -0.0161045 0.999661 0.0204485   
     length 1.91243   
     axis 0 0 0   XYZ
    dof rx ry rz
    limits (-20.0 45.0)
           (-30.0 30.0)
           (-30.0 30.0)
  end
  begin
     id 15 
     name upperneck
     direction 0.0553583 0.990946 -0.122319   
     length 1.91574   
     axis 0 0 0   XYZ
    dof rx ry rz
    limits (-20.0 45.0)
           (-30.0 30.0)
           (-30.0 30.0)
  end
  begin
     id 16
     name head
     direction 0.0180273 0.998839 -0.0446756  
     length 1.92693  
     axis 0 0 0   XYZ
    dof rx ry rz
    limits (-20.0 45.0)
           (-30.0 30.0)
           (-30.0 30.0)
  end
  begin
     id 17 
     name lclavicle
     direction 0.945646 0.319323 -0.0615358  
     length 4.0076  
     axis 0 0 0   XYZ
    dof ry rz
    limits (-20.0 10.0)
           (0.0 20.0)
  end
  begin
     id 18 
     name lhumerus
     direction 1 -4.48967e-011 -2.79996e-027   
     length 5.64147   
     axis 180 -30 -90   XYZ
    dof rx ry rz
    limits (-60.0 90.0)
           (-90.0 90.0)
           (-90.0 90.0)
  end
  begin
     id 19
     name lradius
     direction 1 -4.48976e-011 -9.5122e-027   
     length 2.86444   
     axis 180 -30 -90   XYZ
    dof rx
    limits (-10.0 170.0)
  end
  begin
     id 20
     name lwrist
     direction 1 -4.48983e-011 -1.24047e-026   
     length 1.43222   
     axis 9.05591e-015 90 90   XYZ
    dof ry
    limits (-180.0 0.0)
 end
  begin
     id 21 
     name lhand
     direction 1 -4.4892e-011 -2.48094e-026   
     length 0.722123   
     axis 1.58305e-014 90 90   XYZ
    dof rx rz
    limits (-90.0 90.0)
           (-45.0 45.0)
  end
  begin
     id 22 
     name lfingers
     direction 1 -4.48895e-011 -4.96187e-026   
     length 0.582194   
     axis 3.1661e-014 90 90   XYZ
    dof rx
    limits (0.0 90.0)
  end
  begin
     id 23
     name lthumb
     direction 0.707107 -6.34961e-011 0.707107   
     length 0.835918   
     axis -90 45 2.85299e-015   XYZ
    dof rx rz
    limits (-45.0 45.0)
           (-45.0 45.0)
  end
  begin
     id 24 
     name rclavicle
     direction -0.932635 0.324218 -0.15835   
     length 3.65819  
     axis 0 0 0   XYZ 
    dof ry rz
    limits (-10.0 20.0)
           (-20.0 0.0)
  end
  begin
     id 25 
     name rhumerus
     direction -1 -4.48965e-011 -4.02296e-027  
     length 5.44729   
     axis 180 30 90   XYZ
    dof rx ry rz
    limits (-90.0 60.0)
           (-90.0 90.0)
           (-90.0 90.0)
  end
  begin
     id 26 
     name rradius
     direction -1 -4.48957e-011 -8.81087e-027   
     length 3.08821   
     axis 180 30 90   XYZ
    dof rx
    limits (-10.0 170.0)
  end
  begin
     id 27 
     name rwrist
     direction -1 -4.49015e-011 -1.24047e-026   
     length 1.5441   
     axis 9.05591e-015 -90 -90   XYZ
    dof ry
    limits (-180.0 0.0)
  end
  begin
     id 28
     name rhand
     direction -1 -4.4891e-011 -2.48094e-026   
     length 0.821049   
     axis 1.58305e-014 -90 -90   XYZ
    dof rx rz
    limits (-90.0 90.0)
           (-45.0 45.0)
  end
  begin
     id 29
     name rfingers
     direction -1 -4.48985e-011 -4.96187e-026   
     length 0.661951   
     axis 3.1661e-014 -90 -90   XYZ
    dof rx
    limits (0.0 90.0)
  end
  begin
     id 30
     name rthumb
     direction -0.707107 -6.34906e-011 0.707107   
     length 0.950433   
     axis -90 -45 -2.85299e-015   XYZ
    dof rx rz
    limits (-45.0 45.0)
           (-45.0 45.0)
  end
:hierarchy
  begin
    root lhipjoint rhipjoint lowerback
    lhipjoint lfemur
    lfemur ltibia
    ltibia lfoot
    lfoot ltoes
    rhipjoint rfemur
    rfemur rtibia
    rtibia rfoot
    rfoot rtoes
    lowerback upperback
    upperback thorax
    thorax lowerneck lclavicle rclavicle
    lowerneck upperneck
    upperneck head
    lclavicle lhumerus
    lhumerus lradius
    lradius lwrist
    lwrist lhand lthumb
    lhand lfingers
    rclavicle rhumerus
    rhumerus rradius
    rradius rwrist
    rwrist rhand rthumb
    rhand rfingers
  end

#!OML:ASF F:\VICON\USERDATA\INSTALL\rory3\rory3.ASF
:FULLY-SPECIFIED
:DEGREES
3292
root 1.55962 17.4077 0.690458 733.292 109.169 732.786
lowerback 33.639 -0.17661 0.456785
upperback 12.4574 1.61306 -3.74139
thorax -3.41219 1.7188 -4.72099
lowerneck 15.9557 -4.49261 -8.95122
upperneck -28.1152 -2.32844 20.8178
head -11.2467 -2.38103 9.86152
rclavicle 1.43125e-014 -6.52014e-014
rhumerus 27.6728 11.2251 -69.5215
rradius 126.946
rwrist 27.2467
rhand 8.04009 5.55102
rfingers 7.12502
rthumb 33.2652 -21.3929
lclavicle 1.43125e-014 -6.52014e-014
lhumerus 29.2265 -6.2749 68.4979
lradius 127.088
lwrist 16.1711
lhand -22.8209 13.7744
lfingers 7.12502
lthumb 3.61608 43.7235
rfemur -13.3652 -8.71122 24.8531
rtibia 29.6544
rfoot -23.6616 -13.845
rtoes -7.42202
lfemur -21.6839 -1.11441 -11.5116
ltibia 27.2124
lfoot -2.11525 -14.9809
ltoes 10.5023
3293
root 1.55321 17.4111 0.67193 733.324 109.076 732.839
lowerback 33.6507 -0.141064 0.470231
upperback 12.4541 1.66431 -3.61295
thorax -3.41737 1.73741 -4.60954
lowerneck 16.2761 -5.12386 -8.44792
upperneck -28.171 -2.90011 21.6066
head -11.2223 -2.81394 10.1763
rclavicle 1.03368e-014 3.02153e-014
rhumerus 26.621 11.127 -70.0154
rradius 127.179
rwrist 27.138
rhand 8.16976 5.4288
rfingers 7.12502
rthumb 33.3884 -21.4886
lclavicle 1.03368e-014 3.02153e-014
lhumerus 28.5713 -7.57644 69.0069
lradius 127.142
lwrist 16.3443
lhand -23.1594 13.2471
lfingers 7.12502
lthumb 3.28914 43.2014
rfemur -13.3452 -8.66426 24.7685
rtibia 29.6277
rfoot -23.6244 -13.7844
rtoes -7.17312
lfemur -21.6247 -1.1653 -11.5735
ltibia 27.1861
lfoot -2.24423 -14.8497
ltoes 9.90914
3294
root 1.54398 17.4132 0.652307 733.521 109.053 733.064
lowerback 33.6953 -0.171361 0.683436
upperback 12.4862 1.70308 -3.50368
thorax -3.39524 1.76112 -4.62079
lowerneck 16.4474 -5.81075 -7.80439
upperneck -28.2922 -3.51822 22.2805
head -11.1892 -3.2633 10.418
rclavicle -3.18055e-014 7.15625e-015
rhumerus 25.4382 10.9279 -70.4377
rradius 127.395
rwrist 27.3263
rhand 7.78339 5.05548
rfingers 7.12502
rthumb 33.021 -21.9403
lclavicle -3.18055e-014 7.15625e-015
lhumerus 28.0132 -9.04705 69.4056
lradius 127.148
lwrist 16.4264
lhand -23.7255 12.6843
lfingers 7.12502
lthumb 2.74249 42.6465
rfemur -13.3619 -8.68017 24.7645
rtibia 29.6464
rfoot -23.5479 -13.8461
rtoes -7.49643
lfemur -21.5937 -1.24685 -11.5655
ltibia 27.1455
lfoot -2.26435 -14.7316
ltoes 9.81041
3295
root 1.53664 17.4141 0.633222 733.372 109.004 732.976
lowerback 33.8022 -0.245169 0.687076
upperback 12.5289 1.628 -3.34105
thorax -3.39536 1.72182 -4.42881
lowerneck 16.5818 -6.36061 -7.50928
upperneck -28.4446 -4.03112 22.9769
head -11.164 -3.62801 10.7268
rclavicle 2.54444e-014 -1.11319e-014
rhumerus 24.2945 10.9906 -70.8379
rradius 127.693
rwrist 27.4878
rhand 7.6463 4.68844
rfingers 7.12502
rthumb 32.8907 -22.3348
lclavicle 2.54444e-014 -1.11319e-014
lhumerus 27.3514 -10.272 69.8875
lradius 127.131
lwrist 16.4856
lhand -24.423 11.782
lfingers 7.12502
lthumb 2.0688 41.7517
rfemur -13.3211 -8.67259 24.6377
rtibia 29.6965
rfoot -23.5497 -13.87
rtoes -7.68789
lfemur -21.4843 -1.29631 -11.6761
ltibia 27.0801
lfoot -2.21106 -14.6423
ltoes 10.2153
3296
root 1.52822 17.4139 0.613095 732.759 108.834 732.334
lowerback 33.8595 -0.316264 0.3888
upperback 12.5586 1.45573 -3.16843
thorax -3.4003 1.62212 -4.03334
lowerneck 16.7303 -6.7072 -7.56724
upperneck -28.5663 -4.34895 23.7122
head -11.1489 -3.86876 11.1016
rclavicle -9.78021e-014 4.05521e-014
rhumerus 23.3387 11.2324 -71.2087
rradius 127.99
rwrist 27.7043
rhand 8.16612 4.83382
rfingers 7.12502
rthumb 33.385 -22.0844
lclavicle -9.78021e-014 4.05521e-014
lhumerus 26.5818 -11.1442 70.4275
lradius 127.256
lwrist 16.6703
lhand -24.8526 11.4442
lfingers 7.12502
lthumb 1.65393 41.4175
rfemur -13.3406 -8.56468 24.294
rtibia 29.7279
rfoot -23.6169 -13.7981
rtoes -7.40885
lfemur -21.4213 -1.32649 -12.0086
ltibia 27.0448
lfoot -2.25699 -14.5467
ltoes 10.4487
3297
root 1.51686 17.4163 0.592854 732.197 108.607 731.705
lowerback 33.8639 -0.365449 0.0919811
upperback 12.6087 1.31218 -3.01543
thorax -3.35956 1.53808 -3.66705
lowerneck 16.6864 -7.01159 -7.54793
upperneck -28.5409 -4.61914 24.3576
head -11.0513 -4.07685 11.3847
rclavicle 5.56597e-015 5.56597e-015
rhumerus 22.3767 11.3378 -71.623
rradius 128.248
rwrist 27.6895
rhand 8.9655 4.91047
rfingers 7.12502
rthumb 34.1445 -21.8411
lclavicle 5.56597e-015 5.56597e-015
lhumerus 25.9496 -12.0147 70.9878
lradius 127.495
lwrist 16.9644
lhand -24.1835 12.2214
lfingers 7.12502
lthumb 2.30016 42.1887
rfemur -13.4 -8.4423 23.9522
rtibia 29.7204
rfoot -23.6591 -13.6788
rtoes -7.07433
lfemur -21.4145 -1.33577 -12.3422
ltibia 27.0382
lfoot -2.41749 -14.4111
ltoes 9.93325
3298
root 1.50903 17.4166 0.574643 732.576 108.419 732.157
lowerback 33.8916 -0.422942 0.107605
upperback 12.7054 1.2677 -2.80157
thorax -3.26937 1.51343 -3.43458
lowerneck 16.542 -7.30866 -7.29931
upperneck -28.4975 -4.84655 24.8355
head -10.9522 -4.26372 11.5391
rclavicle -4.85035e-014 4.77083e-014
rhumerus 21.3366 11.2508 -72.1994
rradius 128.409
rwrist 27.5999
rhand 9.58631 5.07109
rfingers 7.12502
rthumb 34.7339 -21.5467
lclavicle -4.85035e-014 4.77083e-014
lhumerus 25.4444 -13.1013 71.5114
lradius 127.589
lwrist 17.1856
lhand -23.1134 12.9668
lfingers 7.12502
lthumb 3.33363 42.9204
rfemur -13.3372 -8.33734 23.9967
rtibia 29.6759
rfoot -23.6223 -13.6847
rtoes -7.32251
lfemur -21.3395 -1.33967 -12.2675
ltibia 27.0757
lfoot -2.54891 -14.3073
ltoes 9.84887
3299
root 1.50272 17.4172 0.556673 733.33 108.252 733.15
lowerback 34.0369 -0.535999 0.268862
upperback 12.8369 1.2127 -2.52411
thorax -3.18419 1.49029 -3.21134
lowerneck 16.3485 -7.51333 -7.25867
upperneck -28.3775 -5.02382 25.3018
head -10.8125 -4.40128 11.7072
rclavicle 7.15625e-015 3.18055e-014
rhumerus 20.4117 11.1724 -72.68
rradius 128.558
rwrist 27.4692
rhand 10.206 5.23887
rfingers 7.12502
rthumb 35.3217 -21.2415
lclavicle 7.15625e-015 3.18055e-014
lhumerus 24.8772 -14.2103 72.0028
lradius 127.446
lwrist 17.38
lhand -22.9582 13.0707
lfingers 7.12502
lthumb 3.48348 43.022
rfemur -13.1152 -8.20496 24.1935
rtibia 29.6409
rfoot -23.6251 -13.6427
rtoes -6.38818
lfemur -21.1253 -1.35158 -12.0085
ltibia 27.1598
lfoot -2.74394 -14.1955
ltoes 9.55665
3300
root 1.49158 17.4182 0.535292 734.039 108.085 734.035
lowerback 34.173 -0.666846 0.534083
upperback 12.9264 1.15919 -2.26808
thorax -3.14011 1.46868 -3.06703
lowerneck 16.3556 -7.76051 -7.15919
upperneck -28.4146 -5.26755 25.6447
head -10.7668 -4.5742 11.8557
rclavicle -7.95139e-015 2.06736e-014
rhumerus 19.4328 10.9574 -73.1051
rradius 128.717
rwrist 27.2251
rhand 11.0785 5.37591
rfingers 7.12502
rthumb 36.1486 -20.904
lclavicle -7.95139e-015 2.06736e-014
lhumerus 24.242 -15.4516 72.5251
lradius 127.233
lwrist 17.6524
lhand -23.4237 12.8614
lfingers 7.12502
lthumb 3.03394 42.8196
rfemur -12.9906 -8.07354 24.3304
rtibia 29.6249
rfoot -23.7001 -13.5459
rtoes -4.28139
lfemur -21.0106 -1.36544 -11.8046
ltibia 27.3007
lfoot -2.90634 -14.076
ltoes 9.35976
3301
root 1.47606 17.4151 0.512286 734.249 107.853 734.262
lowerback 34.2317 -0.771642 0.674271
upperback 12.974 1.08541 -2.07111
thorax -3.11435 1.43076 -2.91118
lowerneck 16.486 -8.03245 -6.89679
upperneck -28.6094 -5.54588 25.7418
head -10.8178 -4.76083 11.9055
rclavicle -1.98785e-014 3.49861e-014
rhumerus 18.343 10.7382 -73.5038
rradius 129.008
rwrist 26.8229
rhand 11.9897 5.37933
rfingers 7.12502
rthumb 37.011 -20.6823
lclavicle -1.98785e-014 3.49861e-014
lhumerus 23.6491 -16.6442 73.0466
lradius 127.036
lwrist 18.1004
lhand -23.3584 13.0343
lfingers 7.12502
lthumb 3.09695 42.9916
rfemur -12.9843 -7.98766 24.2613
rtibia 29.6449
rfoot -23.7978 -13.3485
rtoes -3.16104
lfemur -21.0427 -1.34459 -11.8513
ltibia 27.4423
lfoot -2.99215 -13.9596
ltoes 9.51398
3302
root 1.46022 17.4089 0.490246 734.185 107.531 734.201
lowerback 34.3367 -0.862717 0.572315
upperback 13.0282 0.957431 -1.82512
thorax -3.10103 1.35653 -2.55902
lowerneck 16.3178 -8.18042 -6.9231
upperneck -28.6043 -5.7641 25.8352
head -10.7246 -4.87337 11.9435
rclavicle 2.38542e-014 -3.57812e-014
rhumerus 17.4031 10.6992 -73.7982
rradius 129.324
rwrist 26.3161
rhand 12.8603 5.25136
rfingers 7.12502
rthumb 37.8339 -20.5929
lclavicle 2.38542e-014 -3.57812e-014
lhumerus 23.1434 -17.4714 73.5703
lradius 126.899
lwrist 18.5555
lhand -22.7495 13.8947
lfingers 7.12502
lthumb 3.68498 43.8426
rfemur -13.0124 -7.96221 24.1099
rtibia 29.7124
rfoot -23.6768 -13.223
rtoes -4.10815
lfemur -21.0525 -1.34298 -12.0068
ltibia 27.5523
lfoot -3.17061 -13.7698
ltoes 9.41955
3303
root 1.4463 17.402 0.468608 734.078 107.157 734.097
lowerback 34.4 -0.923305 0.421864
upperback 13.1159 0.857182 -1.56978
thorax -3.03444 1.29569 -2.17912
lowerneck 16.0529 -8.28101 -6.97369
upperneck -28.5475 -5.93683 25.8817
head -10.6019 -4.95092 11.9456
rclavicle -2.78299e-015 -1.90833e-014
rhumerus 16.5158 10.5635 -74.1135
rradius 129.621
rwrist 25.9313
rhand 14.2125 5.41454
rfingers 7.12502
rthumb 39.1098 -20.0739
lclavicle -2.78299e-015 -1.90833e-014
lhumerus 22.8192 -18.3682 74.0097
lradius 126.739
lwrist 18.9511
lhand -22.3811 14.6946
lfingers 7.12502
lthumb 4.04076 44.6361
rfemur -13.1565 -7.92003 23.9247
rtibia 29.8044
rfoot -23.3126 -13.3742
rtoes -5.93013
lfemur -21.0295 -1.28578 -12.1906
ltibia 27.644
lfoot -3.40875 -13.5779
ltoes 8.73741
3304
root 1.43222 17.3994 0.446379 733.699 106.802 733.724
lowerback 34.3978 -0.932616 0.393011
upperback 13.2538 0.864067 -1.4176
thorax -2.88524 1.30048 -2.00405
lowerneck 15.9794 -8.47899 -6.55353
upperneck -28.7569 -6.09506 25.7749
head -10.6615 -5.06085 11.8557
rclavicle -6.75868e-015 -4.81059e-014
rhumerus 15.5826 10.0113 -74.5212
rradius 129.904
rwrist 25.728
rhand 15.5554 5.60952
rfingers 7.12502
rthumb 40.3741 -19.5026
lclavicle -6.75868e-015 -4.81059e-014
lhumerus 22.7942 -19.7243 74.2445
lradius 126.487
lwrist 19.1888
lhand -22.4244 14.9592
lfingers 7.12502
lthumb 3.99893 44.9014
rfemur -13.2715 -7.93794 23.6359
rtibia 29.8849
rfoot -23.0649 -13.3939
rtoes -6.85463
lfemur -20.9819 -1.21032 -12.4649
ltibia 27.7201
lfoot -3.57705 -13.4107
ltoes 8.06166
3305
root 1.41494 17.3961 0.425381 733.55 106.465 733.602
lowerback 34.3863 -0.969903 0.433069
upperback 13.4391 0.867473 -1.23076
thorax -2.68205 1.30795 -1.827
lowerneck 15.8672 -8.64548 -6.27309
upperneck -29.028 -6.21896 25.7405
head -10.7311 -5.14528 11.8257
rclavicle -5.56597e-015 -4.8901e-014
rhumerus 14.788 9.45075 -74.741
rradius 130.206
rwrist 25.5455
rhand 15.9421 5.50586
rfingers 7.12502
rthumb 40.7377 -19.4933
lclavicle -5.56597e-015 -4.8901e-014
lhumerus 22.7613 -20.9387 74.6009
lradius 126.107
lwrist 19.2712
lhand -22.4512 14.8012
lfingers 7.12502
lthumb 3.9731 44.7439
rfemur -13.334 -7.82726 23.4287
rtibia 29.9473
rfoot -22.9995 -13.2944
rtoes -6.74899
lfemur -20.9324 -1.18943 -12.6409
ltibia 27.7806
lfoot -3.7402 -13.1627
ltoes 7.62533
